<svg enable-background="new 0 0 228.9 74.7" viewBox="0 0 228.9 74.7" xmlns="http://www.w3.org/2000/svg"><circle cx="34.6" cy="38.3" fill="#fff" r="30.5" stroke="#fff" stroke-miterlimit="10" stroke-width="3"/><circle cx="34.6" cy="38.3" fill="#321e0f" r="26.6" stroke="#f2673f" stroke-miterlimit="10" stroke-width="3"/><g fill="#fff"><path d="m71.8 32.8c.4-1.8.5-3.1.5-4 0-1 .7-1.9 1.9-1.9h.5c.7 0 1.7 0 2.6-.1 1.1 0 2.3-.1 3.4-.1 2.3 0 4.9.1 6.3 1.8.7.9 1.2 2.2 1.2 3.3 0 2-1.2 4.4-3.5 6-1.5 1-3.2 1.3-4.2 1.4 2.2.3 6 1 6 5.3 0 1.7-.6 3.2-1.8 4.6-.9 1-2.8 3.5-9.1 3.5-1.2 0-2.1 0-2.9-.1h-.2c-.6 0-1.3-.1-2-.1h-.5c-1.2 0-2.1-1-1.8-2 .2-.8.5-2 .9-3.9zm1.5 14c-.2.9-.3 1.4-.3 1.8 0 1.4 1 1.5 2.5 1.5 5.3 0 6.3-3.9 6.3-5.8 0-3.6-3.1-3.6-4.1-3.6-.6 0-1.2 0-3.5.1h.4zm1.8-9h-.3.3c.3 0 .7.1 1.1.1.5 0 1.3 0 2.1-.1.7-.1 1.5-.3 2.3-.6 2.1-1 3-3.1 3-4.8 0-3.1-2.3-3.4-4-3.4-.9 0-1.7.1-2.7.2-.1 0-.3 0-.5.1h.3z"/><path d="m92.9 43.4c-.6 3.6-.9 5.7-1 7-.1 1-1.2 1.7-2.4 1.7h-.3c-1 0-1.8-.9-1.6-1.8 0 0 0-.1 0-.2.2-.8.4-1.8.7-3.3l.6-3.5c.9-4.8 1.2-7.2 1.2-8.5 0-.8.3-1.8 1.4-1.9.5-.1.9-.1 1.3-.2 1.1-.3 2 .6 1.8 1.5 0 .2-.1.4-.1.6-.1.6-.3 1.5-.5 2.7zm2.9-15.9c0 1.2-1 3-2.8 3-1 0-2.1-.6-2.1-1.9 0-1.1.9-2.9 2.9-2.9 1 0 2 .6 2 1.8z"/><path d="m98.5 43.1c-1.1-.6-3.1-1.9-3.1-4.2 0-2 1.3-3.8 3-5.1 1.8-1.4 4.5-1.6 5.9-1.6 1 0 1.7.1 2.4.3 1 .2 1.5 1.2 1.2 2-.4.9-1.5 1-2.5.6-.5-.3-1.2-.4-1.9-.4-2.5 0-3.9 1.8-3.9 3.2 0 1.7 1.2 2.4 2.5 3.1l1.8 1.1c1.1.6 2.7 1.7 2.7 3.9 0 1.5-.8 3.6-2.9 5.2-2.2 1.5-4.7 1.7-6.3 1.7-1 0-1.9-.1-2.6-.3-1.1-.3-1.8-1.4-1.5-2.3.3-.8 1.5-1.1 2.4-.6.7.3 1.6.6 3 .6 2.6 0 4-1.6 4-3.1 0-1.4-.9-2-1.9-2.6z"/><path d="m116.1 32.1h1.3c.9-.1 1.5.6 1.4 1.3-.2.8-1.1 1.2-2.1 1.2-.7 0-1.7 0-2.2 0-.2.9-.4 2.3-.7 3.6-.4 1.8-.8 3.9-1 5.2-.4 1.9-.7 3.5-.7 4.5 0 1.4.7 2 1.7 2 .3 0 .6 0 .9-.1.8-.1 1.4.4 1.3 1-.2.9-1 1.7-2.1 1.8-.3 0-.6 0-.9 0-2.2 0-3.7-.7-4.2-1.4s-.8-1.4-.8-2.2c0-.7.1-1.5.3-2.5l2.3-12h.3c-.1 0-.2 0-.3 0-.8 0-1.4-.6-1.3-1.2.1-.7.8-1.3 1.8-1.2.2-1 .3-1.7.4-2.5.1-1.2 1.1-2.1 2.4-2.4 1-.2 2.1.4 1.9 1.3-.3 1.2-.5 2.1-.8 3.7.4 0 .7-.1 1.1-.1z"/><path d="m119.3 38.8c.4-1.9.5-3.2.4-4-.1-.9.4-1.8 1.5-1.9.4 0 .7-.1 1-.1 1.1-.2 2.1.5 2 1.4 0 .2-.1.6-.3 1.2-.1.5-.3 1.1-.4 1.7.7-1.3 1.7-2.8 3-3.7.7-.4 1.4-.8 2.1-1 1.1-.3 1.9.6 1.6 1.5-.4 1-1.6 1.6-2.8 1.9-1.5.4-3.5 2-4.5 5.5-.5 1.9-1.4 6.7-1.5 9-.1 1-1.1 1.9-2.4 1.8h-.2c-1.1 0-2.1-.8-1.8-1.7.2-.6.4-1.3.4-1.8z"/><path d="m145.4 34c1.8 1.8 1.9 3.9 1.9 5 0 5.6-3.6 13.7-11.6 13.7-2 0-4-.6-5.3-1.8-.8-.8-2.2-2.3-2.2-5.6 0-5.8 3.8-13.1 11.7-13.1 2.4-.1 4.3.5 5.5 1.8zm-3.6 1.4c-.4-.4-1.3-1-2.5-1-5.5 0-6.8 8.4-6.8 11.3 0 3.4 1.6 4.7 3.5 4.7 6 0 6.9-9.9 6.9-11.6 0-.9-.1-2.4-1.1-3.4z"/></g><path d="m156.7 39.7c-1.8-1.2-3.8-2.5-3.8-5.2 0-3.6 3.4-8.1 10.8-8.1 1.2 0 2.4.1 3.4.4 1.2.3 1.7 1.4 1.5 2.3s-1.5 1.1-2.4.7c-.8-.4-1.9-.8-3.4-.8-4.2 0-5.5 3.1-5.5 4.7 0 2.2 1.7 3.2 3 3.9l2.1 1.2c2.2 1.3 4.2 2.5 4.2 5.3 0 3.4-3.1 6-4.6 6.9-2.2 1.3-4.9 1.8-7.5 1.8-1.1 0-2.2-.1-3.2-.4-1.2-.3-1.7-1.4-1.3-2.4s1.7-1.2 2.8-.6c.1.1.2.1.3.1h-.1.2c.9.3 2.1.5 2.9.5 3.4 0 6.1-1.9 6.1-5.1 0-1.9-1.2-2.8-3.4-4z" fill="#f2673f"/><path d="m173.1 43.6c-.4 1.8-.5 2.7-.5 3.5 0 1.4.6 2.6 2.3 2.6.7 0 2.7-.3 4.3-2.8.8-1.4 1.7-4.8 2.2-7.5.4-2.1.6-3.5.6-4.4 0-1 .8-2 1.9-2.2.1 0 .4 0 .5-.1.1 0 .2-.1.4-.1 1-.1 2 .6 1.8 1.4-.5 1.8-1 4.2-1.6 7.5-.9 5-1.2 7.4-1.2 8.8v.3c0 .9-.9 1.7-2.1 1.7s-2.2-.9-2.2-1.9c0-.4.1-1.2.2-1.9-.5 1-1.3 2.2-2.3 3-1.6 1.1-3.7 1.3-4.2 1.3-2.6 0-4.8-1.3-4.8-3.9 0-.5.1-1 .3-2.3l1.8-9.6c.1-.7.2-1.3.3-1.7.1-.9.5-2 1.7-2.2.1 0 .3 0 .4-.1.1 0 .3-.1.4-.1 1.1-.2 2.1.7 1.9 1.6-.4 1.7-.6 2.4-.9 4z" fill="#f2673f"/><path d="m192 43.4c-.6 3.6-.9 5.7-1 7-.1 1-1.2 1.7-2.4 1.7h-.3c-1 0-1.8-.9-1.6-1.8 0 0 0-.1 0-.2.2-.8.4-1.8.7-3.3l.6-3.5c.9-4.8 1.2-7.2 1.2-8.5 0-.8.3-1.8 1.4-1.9.5-.1.9-.1 1.3-.2 1.1-.3 2 .6 1.8 1.5 0 .2-.1.4-.1.6-.1.6-.3 1.5-.5 2.7zm2.9-15.9c0 1.2-1 3-2.8 3-1 0-2.1-.6-2.1-1.9 0-1.1.9-2.9 2.9-2.9 1.1 0 2 .6 2 1.8z" fill="#f2673f"/><path d="m202.6 32.1h1.3c.9-.1 1.5.6 1.4 1.3-.2.8-1.1 1.2-2.1 1.2-.7 0-1.7 0-2.2 0-.2.9-.4 2.3-.7 3.6-.4 1.8-.8 3.9-1 5.2-.4 1.9-.7 3.5-.7 4.5 0 1.4.7 2 1.7 2 .3 0 .6 0 .9-.1.8-.1 1.4.4 1.3 1-.2.9-1 1.7-2.1 1.8-.3 0-.6 0-.9 0-2.2 0-3.7-.7-4.2-1.4s-.8-1.4-.8-2.2c0-.7.1-1.5.3-2.5l2.3-12h.3c-.1 0-.2 0-.3 0-.8 0-1.4-.6-1.3-1.2.1-.7.8-1.3 1.8-1.2.2-1 .3-1.7.4-2.5.1-1.2 1.1-2.1 2.4-2.4 1-.2 2.1.4 1.9 1.3-.3 1.2-.5 2.1-.8 3.7.4 0 .7-.1 1.1-.1z" fill="#f2673f"/><path d="m212.2 50.3c1.4 0 2.5-.4 3.4-.7.7-.3 1.5.2 1.3.8-.3.8-.9 1.6-2.1 1.9-.9.2-2 .4-3.5.4-6-.2-7.5-3.5-7.6-8 0-3.9 1.9-7.1 3.1-8.6 2.5-3.1 5.9-4.1 8.4-4.1 3.6 0 5.5 1.9 5.5 4.3 0 1.1-.5 2.5-1.2 3.6-.9 1.3-2.4 2.3-3.6 3-2.4 1.2-4.8 1.3-7.6 1.4 0 .1-.1.6-.1 1.4 0 1.8.5 4.7 4 4.6zm-1.3-14.1c-1.4 1.7-2.2 5.3-2.5 7.3 2.2-.2 4.6-1.6 6.5-3.4.9-.9 1.6-2.2 1.6-3.6 0-1.6-1-2.4-2.1-2.4-.6.1-1.9.3-3.5 2.1z" fill="#f2673f"/><path d="m26.6 47.5 5.8 3.3 7.8-2.6 3.2-8.4-.6-9.7-2.6-3.9-5.9-.7-5.1 3.9-2.6 5.2-.7 5.8z" fill="#fff" opacity=".15"/><path d="m30.4 42.4c-3.4-3.4-3.4-9 0-12.4s8.9-3.4 12.3 0l3.9-3.9c-5.6-5.6-14.6-5.6-20.1 0-5.6 5.6-5.6 14.6 0 20.1z" fill="#f2673f"/><path d="m38.9 33.9c0 .1 0 .1 0 0 3.4 3.4 3.4 9 0 12.4s-8.9 3.4-12.3 0l-3.9 3.9c5.6 5.6 14.6 5.6 20.1 0 5.6-5.6 5.6-14.6 0-20.1z" fill="#f2673f"/></svg>