<?xml version="1.0" encoding="utf-8"?>
<!-- Generator: Adobe Illustrator 23.0.4, SVG Export Plug-In . SVG Version: 6.00 Build 0)  -->
<svg version="1.1" id="Layer_1" xmlns="http://www.w3.org/2000/svg" xmlns:xlink="http://www.w3.org/1999/xlink" x="0px" y="0px"
	 viewBox="0 0 190.55 30.18" style="enable-background:new 0 0 190.55 30.18;" xml:space="preserve">
<style type="text/css">
	.st0{fill:#F48020;}
	.st1{fill:#FFFFFF;}
</style>
<g>
	<path class="st0" d="M88.5,5.97c0.36,0,1.11,0.04,2.02,0.23c0.63,0.15,0.97,0.74,0.76,1.24c-0.23,0.55-0.92,0.74-1.53,0.44
		c-0.42-0.23-1.01-0.38-1.85-0.38c-4.35,0-6.03,4.43-6.03,7.89c0,2.67,1.2,4.58,4.14,4.58c0.69,0,1.26-0.08,2.06-0.38h-0.02
		c0.1-0.04,0.25-0.11,0.34-0.15c0.44-0.17,0.99,0.06,0.84,0.44c-0.29,0.69-0.92,1.28-1.83,1.41c-0.55,0.06-1.22,0.13-1.99,0.13
		c-2.29,0-4.3-0.57-5.4-2.29c-0.57-0.88-0.92-2.1-0.92-3.59C79.07,11.68,81.05,5.97,88.5,5.97z"/>
	<path class="st0" d="M100.3,10.46c1.05,1.03,1.09,2.29,1.09,2.9c0,3.28-2.08,8-6.76,8c-1.15,0-2.31-0.34-3.11-1.05
		c-0.48-0.46-1.26-1.36-1.26-3.25c0-3.38,2.2-7.66,6.8-7.66C98.5,9.39,99.61,9.75,100.3,10.46z M98.2,11.3
		c-0.25-0.23-0.73-0.57-1.45-0.57c-3.19,0-3.97,4.91-3.97,6.57c0,1.99,0.94,2.73,2.04,2.73c3.53,0,4.01-5.75,4.01-6.76
		C98.83,12.77,98.81,11.87,98.2,11.3z"/>
	<path class="st0" d="M103.26,13.63c0.15-0.86,0.32-1.93,0.32-2.73v-0.12c-0.02-0.48,0.21-1.01,0.82-1.07
		c0.25-0.02,0.46-0.06,0.69-0.1c0.59-0.08,1.18,0.34,1.11,0.82c-0.04,0.25-0.15,0.78-0.25,1.3c0.25-0.48,0.55-0.99,0.95-1.32
		c0.84-0.65,1.91-1.05,3.07-1.05c1.24,0,2.92,0.46,2.92,2.18c0,0.38-0.06,0.84-0.25,1.83c-0.17,0.95-0.36,1.99-0.53,2.94
		c-0.17,0.9-0.46,2.6-0.53,3.67c-0.04,0.61-0.67,1.05-1.38,1.05H110c-0.61,0.02-1.11-0.44-0.99-0.92c0.19-0.65,0.42-1.68,0.78-3.74
		l0.25-1.41c0.19-1.03,0.32-1.85,0.32-2.46c0-1.05-0.36-1.49-1.47-1.49c-0.88,0-1.93,0.65-2.54,1.45c-0.71,0.92-0.97,2.41-1.16,3.57
		l-0.38,2.46c-0.11,0.65-0.15,1.13-0.17,1.53c-0.04,0.59-0.69,0.99-1.39,0.99h-0.17c-0.61,0.02-1.13-0.44-1.03-0.9
		c0.23-0.76,0.38-1.55,0.52-2.52L103.26,13.63z"/>
	<path class="st0" d="M114.94,9.92c0.08-0.36,0.53-0.61,1.01-0.55h0.02c0.4-2.31,1.01-3.42,2.14-4.28c0.97-0.69,1.97-0.88,2.88-0.92
		c0.57-0.02,0.99,0.48,0.8,0.92c-0.19,0.48-0.86,0.61-1.43,0.63c-1.2,0.08-1.7,1.74-2.08,3.67h0.86c0.15,0,0.29-0.02,0.42-0.02h0.34
		c0.48,0,0.9,0.34,0.82,0.71c-0.06,0.4-0.57,0.61-1.07,0.61c-0.27-0.02-0.9-0.02-1.13-0.02h-0.48c-0.38,2.18-0.76,4.6-1.13,6.78
		c-0.06,0.34-0.13,0.69-0.19,1.03c-0.06,0.34-0.12,0.67-0.19,1.03c-0.34,1.95-1.39,6.28-5.61,6.53c-0.52-0.02-0.86-0.53-0.71-0.92
		c0.17-0.46,0.76-0.65,1.32-0.67h-0.02c0.74-0.08,1.22-0.63,1.41-0.88c0.69-0.86,1.09-2.9,1.58-5.56c0.4-2.37,0.8-4.96,1.2-7.33
		h-0.04C115.15,10.67,114.88,10.27,114.94,9.92z"/>
	<path class="st0" d="M122.69,15.96c-0.38,2.1-0.55,3.34-0.61,4.07c-0.04,0.59-0.69,0.99-1.39,0.99h-0.17
		c-0.61,0.02-1.05-0.55-0.94-1.05c0-0.02,0.02-0.08,0.02-0.1c0.11-0.44,0.25-1.05,0.4-1.91l0.38-2.06c0.5-2.79,0.69-4.18,0.67-4.93
		c-0.02-0.48,0.17-1.07,0.82-1.11c0.29-0.04,0.53-0.08,0.76-0.13c0.63-0.15,1.16,0.36,1.05,0.88c-0.02,0.1-0.04,0.21-0.06,0.34
		c-0.08,0.38-0.19,0.88-0.32,1.6L122.69,15.96z M124.39,6.68c0,0.67-0.57,1.74-1.66,1.74c-0.61,0-1.24-0.34-1.24-1.09
		c0-0.63,0.52-1.68,1.68-1.68C123.82,5.65,124.39,5.99,124.39,6.68z"/>
	<path class="st0" d="M125.65,13.3c0.21-1.13,0.27-1.85,0.25-2.33c-0.04-0.5,0.25-1.03,0.88-1.11c0.21-0.02,0.4-0.04,0.57-0.06
		h-0.02c0.63-0.13,1.22,0.29,1.18,0.8c-0.02,0.13-0.08,0.38-0.15,0.67c-0.06,0.29-0.17,0.63-0.23,0.97
		c0.42-0.76,1.01-1.66,1.76-2.16c0.4-0.25,0.82-0.44,1.2-0.57c0.63-0.19,1.11,0.36,0.94,0.88c-0.21,0.57-0.92,0.92-1.62,1.09
		c-0.88,0.23-2.04,1.16-2.6,3.21c-0.32,1.11-0.8,3.88-0.9,5.27c-0.06,0.61-0.65,1.09-1.39,1.07h-0.11c-0.63,0-1.2-0.46-1.05-0.99
		c0.1-0.36,0.21-0.74,0.25-1.05L125.65,13.3z"/>
	<path class="st0" d="M144.76,9.35c0.76,0,2.44,0.27,2.44,2.14c0,0.5-0.08,0.99-0.23,1.74c-0.21,1.16-0.44,2.44-0.65,3.59
		c-0.27,1.47-0.38,2.44-0.42,3.06c-0.04,0.65-0.69,1.13-1.43,1.13h-0.17c-0.65,0.02-1.07-0.5-0.94-1.01
		c0.13-0.4,0.27-1.09,0.42-1.87c0.21-1.2,0.44-2.52,0.65-3.72c0.12-0.73,0.25-1.53,0.25-1.97c0-1.13-0.23-1.39-0.65-1.39
		c-0.9,0-2.2,0.71-3.02,2.9c-0.59,1.72-1.01,4.79-1.11,5.98c-0.06,0.61-0.71,1.05-1.43,1.05c-0.65,0-1.2-0.5-1.09-1.01
		c0.17-0.63,0.36-1.55,0.65-3.17l0.25-1.47c0.23-1.34,0.38-2.35,0.38-2.9c0-1.01-0.04-1.41-0.74-1.41c-1.11,0-2.22,1.01-2.88,2.75
		c-0.48,1.41-1.01,4.77-1.13,6.13c-0.04,0.61-0.69,1.07-1.41,1.07h-0.17c-0.59,0.02-1.05-0.48-0.95-0.97
		c0.13-0.46,0.23-1.03,0.4-1.91c0.29-1.68,0.65-3.59,0.92-5.27c0.17-0.88,0.21-1.47,0.19-1.87c-0.02-0.52,0.19-1.05,0.82-1.15
		c0.11-0.02,0.27-0.02,0.38-0.04c0.06-0.02,0.17-0.04,0.25-0.04c0.59-0.11,1.3,0.23,1.2,0.78c-0.06,0.23-0.15,0.69-0.25,1.2
		c0,0.02-0.02,0.04-0.02,0.06c0.31-0.53,0.69-1.09,1.09-1.49c0.21-0.23,1.07-0.94,2.27-0.94c1.95,0,2.33,1.8,2.44,2.9
		c0.38-0.63,0.92-1.45,1.43-1.95C142.72,10.06,143.56,9.35,144.76,9.35z"/>
	<path class="st0" d="M157.88,9.73c0.61-0.19,1.15,0.36,1.07,0.88c-0.17,0.69-0.4,1.78-0.76,3.72l-0.38,2.08
		c-0.34,1.87-0.46,3.15-0.46,3.8c0,0.5-0.59,0.86-1.2,0.88c-0.63,0.02-1.18-0.4-1.13-0.9c0.04-0.46,0.15-1.13,0.23-1.68
		c0.06-0.36,0.06-0.25,0.06-0.38c-0.02,0.02-0.04,0.08-0.06,0.11c-0.92,1.32-2.12,3.09-3.9,3.09c-1.64,0-3.28-1.11-3.28-3.51
		c0-0.97,0.59-4.83,3.57-7.22c0.53-0.38,1.74-1.18,3.57-1.18c0.99,0,1.64,0.23,2.27,0.46L157.88,9.73z M156.43,11.07h0.11
		c-0.04,0-0.06,0-0.08-0.02h0.02c-0.4-0.13-0.95-0.32-1.62-0.32c-3.36,0-4.26,4.54-4.26,6.3c0,1.45,0.46,2.52,1.68,2.52
		c0.69,0,1.53-0.36,2.27-1.43c0.59-0.82,0.96-2.04,1.34-4.14L156.43,11.07z"/>
	<path class="st0" d="M169.12,16.09c-0.02,0.19-0.04,0.36-0.08,0.55c-0.19,1.11-0.42,2.44-0.42,3.38c-0.02,0.54-0.46,1.05-1.13,1.07
		c-0.71,0-1.34-0.48-1.26-1.09c0.02-0.21,0.12-0.92,0.23-1.53c-0.8,1.22-1.91,2.86-3.63,2.86c-1.78,0-3.34-1.18-3.34-3.57
		c0-0.57,0.31-3.55,2.16-5.9c1.18-1.41,3-2.39,4.91-2.39c0.59,0,0.99,0.08,1.38,0.19c0.21-1.09,0.29-1.68,0.25-2.14
		c-0.02-0.53,0.32-1.09,0.97-1.18c0.15-0.02,0.29-0.04,0.36-0.06c0.67-0.13,1.36,0.23,1.26,0.76c-0.08,0.38-0.17,0.86-0.32,1.62
		c-0.06,0.32-0.12,0.69-0.21,1.11L169.12,16.09z M162,17.05c0,1.47,0.59,2.56,1.64,2.56c0.67,0,1.64-0.48,2.39-1.97
		c0.59-1.15,0.84-2.44,1.66-6.61h0.15c-0.5-0.15-0.94-0.27-1.49-0.27C162.84,10.75,162,15.73,162,17.05z"/>
	<path class="st0" d="M180.65,9.73c0.61-0.19,1.15,0.36,1.07,0.88c-0.17,0.69-0.4,1.78-0.76,3.72l-0.38,2.08
		c-0.34,1.87-0.46,3.15-0.46,3.8c0,0.5-0.59,0.86-1.2,0.88c-0.63,0.02-1.18-0.4-1.13-0.9c0.04-0.46,0.15-1.13,0.23-1.68
		c0.06-0.36,0.06-0.25,0.06-0.38c-0.02,0.02-0.04,0.08-0.06,0.11c-0.92,1.32-2.12,3.09-3.9,3.09c-1.64,0-3.28-1.11-3.28-3.51
		c0-0.97,0.59-4.83,3.57-7.22c0.53-0.38,1.74-1.18,3.57-1.18c0.99,0,1.64,0.23,2.27,0.46L180.65,9.73z M179.2,11.07h0.11
		c-0.04,0-0.06,0-0.08-0.02h0.02c-0.4-0.13-0.95-0.32-1.62-0.32c-3.36,0-4.26,4.54-4.26,6.3c0,1.45,0.46,2.52,1.68,2.52
		c0.69,0,1.53-0.36,2.27-1.43c0.59-0.82,0.96-2.04,1.34-4.14L179.2,11.07z"/>
</g>
<g>
	<path class="st1" d="M16.17,14.64c0.17,2.02,1.26,3.95,2.79,5.61c0.27,0.31,0.06,0.86-0.42,0.84h-0.23c-0.08,0-0.19-0.02-0.29-0.02
		c-0.82,0-1.7-0.25-2.1-0.86c-0.34-0.48-0.73-1.2-1.18-2.06c-0.5-1.03-0.86-2.18-1.03-3.19h-1.6c-0.23,1.43-0.55,3.19-0.78,4.62
		c0,0.04-0.02,0.15-0.02,0.19c0,0.02,0,0.04-0.04,0.17h0.02c-0.08,0.63-0.65,1.15-1.41,1.15c-0.04,0-0.08-0.02-0.13-0.02H9.64
		c0,0,0,0.02-0.02,0.02c-0.67,0-1.22-0.53-1.05-1.03H8.55c0.25-0.8,0.46-1.8,0.78-3.34c0.44-2.37,0.94-4.98,1.36-7.35
		c0.17-0.84,0.23-1.45,0.27-1.89c0.06-0.59,0.55-1.15,1.26-1.13h1.32c0.59-0.02,1.24-0.02,1.55-0.02s0.55-0.02,0.76-0.02
		c0.94,0,2.23,0.04,3.13,0.59c1.18,0.76,1.51,1.95,1.51,2.81c0,0.48-0.13,2.02-1.53,3.4c-0.97,0.97-2.08,1.3-2.94,1.53H16.17z
		 M12.41,13.44h0.1c0.21,0,0.5,0.02,0.78,0.02c0.82,0,1.66-0.06,2.44-0.42c1.51-0.63,1.95-2.29,1.95-3.15
		c0-1.74-1.15-2.25-2.56-2.25c-0.44,0-0.84,0.04-1.76,0.15h0.19c-0.23,0.88-0.31,1.3-0.63,2.94L12.41,13.44z"/>
	<path class="st1" d="M25.72,20.01c0.82,0,1.47-0.21,1.97-0.42c0.4-0.19,0.86,0.1,0.76,0.48c-0.15,0.48-0.55,0.95-1.2,1.11
		c-0.52,0.1-1.18,0.21-2.02,0.21c-3.51-0.1-4.37-2.04-4.41-4.66c0-2.29,1.11-4.16,1.81-5.02c1.45-1.78,3.42-2.37,4.87-2.37
		c2.12,0,3.19,1.09,3.19,2.52c0,0.63-0.27,1.45-0.71,2.12c-0.52,0.78-1.41,1.36-2.1,1.72c-1.41,0.69-2.81,0.76-4.45,0.82
		c-0.02,0.06-0.06,0.38-0.06,0.8C23.37,18.36,23.69,20.04,25.72,20.01z M24.95,11.78c-0.84,0.96-1.28,3.06-1.45,4.26
		c1.3-0.13,2.71-0.95,3.8-1.97c0.55-0.52,0.94-1.26,0.94-2.1c0-0.94-0.57-1.39-1.2-1.39c-0.38,0-1.18,0.15-2.08,1.2H24.95z"/>
	<path class="st1" d="M32.99,15.77c-0.63-0.38-1.81-1.09-1.81-2.46c0-1.16,0.73-2.2,1.74-2.98c1.07-0.8,2.62-0.95,3.46-0.95
		c0.59,0,1.01,0.04,1.41,0.15h-0.02c0.61,0.13,0.9,0.71,0.69,1.18c-0.23,0.5-0.9,0.61-1.45,0.34c-0.31-0.15-0.69-0.25-1.13-0.25
		c-1.47,0-2.27,1.03-2.27,1.87c0,0.97,0.71,1.39,1.47,1.81l1.07,0.65c0.63,0.38,1.6,0.99,1.6,2.25c0,0.9-0.44,2.12-1.7,3.04
		c-1.26,0.9-2.73,0.97-3.65,0.97c-0.57,0-1.13-0.06-1.53-0.15c-0.65-0.17-1.05-0.8-0.88-1.36c0.19-0.48,0.86-0.65,1.39-0.38
		c0.4,0.19,0.92,0.34,1.72,0.34c1.51,0,2.33-0.92,2.33-1.79c0-0.8-0.55-1.18-1.13-1.51L32.99,15.77z"/>
	<path class="st1" d="M43.76,20.01c0.82,0,1.47-0.21,1.97-0.42c0.4-0.19,0.86,0.1,0.76,0.48c-0.15,0.48-0.55,0.95-1.2,1.11
		c-0.52,0.1-1.18,0.21-2.02,0.21c-3.51-0.1-4.37-2.04-4.41-4.66c0-2.29,1.11-4.16,1.81-5.02c1.45-1.78,3.42-2.37,4.87-2.37
		c2.12,0,3.19,1.09,3.19,2.52c0,0.63-0.27,1.45-0.71,2.12c-0.52,0.78-1.41,1.36-2.1,1.72c-1.41,0.69-2.81,0.76-4.45,0.82
		c-0.02,0.06-0.06,0.38-0.06,0.8C41.41,18.36,41.73,20.04,43.76,20.01z M42.99,11.78c-0.84,0.96-1.28,3.06-1.45,4.26
		c1.3-0.13,2.71-0.95,3.8-1.97c0.55-0.52,0.94-1.26,0.94-2.1c0-0.94-0.57-1.39-1.2-1.39c-0.38,0-1.18,0.15-2.08,1.2H42.99z"/>
	<path class="st1" d="M50.19,13.3c0.21-1.13,0.27-1.85,0.25-2.33c-0.04-0.5,0.25-1.03,0.88-1.11c0.21-0.02,0.4-0.04,0.57-0.06h-0.02
		c0.63-0.13,1.22,0.29,1.18,0.8c-0.02,0.13-0.08,0.38-0.15,0.67s-0.17,0.63-0.23,0.97c0.42-0.76,1.01-1.66,1.76-2.16
		c0.4-0.25,0.82-0.44,1.2-0.57c0.63-0.19,1.11,0.36,0.94,0.88c-0.21,0.57-0.92,0.92-1.62,1.09c-0.88,0.23-2.04,1.16-2.6,3.21
		c-0.31,1.11-0.8,3.88-0.9,5.27c-0.06,0.61-0.65,1.09-1.39,1.07h-0.1c-0.63,0-1.2-0.46-1.05-0.99c0.1-0.36,0.21-0.74,0.25-1.05
		L50.19,13.3z"/>
	<path class="st1" d="M63.42,13.4c0.5-1.09,0.84-1.93,1.03-2.6c0.21-0.65,0.9-1.09,1.7-1.09c0.59,0,1.03,0.52,0.78,0.94
		c-0.27,0.44-0.52,0.86-0.84,1.43c-1.03,1.83-1.15,2.06-2.77,5.33l-0.63,1.26c-0.34,0.65-0.52,1.05-0.69,1.41
		c-0.31,0.61-1.11,0.99-1.93,0.99c-0.8,0-1.47-0.48-1.55-1.13c-0.06-0.55-0.15-1.09-0.23-1.64c-0.19-1.13-0.4-2.37-0.59-3.51
		c-0.02-0.13-0.04-0.27-0.06-0.4c-0.13-0.78-0.19-1.07-0.44-2.27c-0.13-0.67-0.23-1.11-0.34-1.45h0.02
		c-0.17-0.5,0.38-0.97,0.99-0.95h0.5c0.71-0.02,1.26,0.48,1.28,1.09c0.02,0.42,0.06,1.03,0.17,1.93c0.38,3.17,0.48,3.8,0.92,6.17
		L63.42,13.4z"/>
	<path class="st1" d="M76.54,9.73c0.61-0.19,1.15,0.36,1.07,0.88c-0.17,0.69-0.4,1.78-0.76,3.72l-0.38,2.08
		c-0.34,1.87-0.46,3.15-0.46,3.8c0,0.5-0.59,0.86-1.2,0.88c-0.63,0.02-1.18-0.4-1.13-0.9c0.04-0.46,0.15-1.13,0.23-1.68
		c0.06-0.36,0.06-0.25,0.06-0.38c-0.02,0.02-0.04,0.08-0.06,0.11c-0.92,1.32-2.12,3.09-3.91,3.09c-1.64,0-3.28-1.11-3.28-3.51
		c0-0.97,0.59-4.83,3.57-7.22c0.52-0.38,1.74-1.18,3.57-1.18c0.99,0,1.64,0.23,2.27,0.46L76.54,9.73z M75.09,11.07h0.1
		c-0.04,0-0.06,0-0.08-0.02h0.02c-0.4-0.13-0.94-0.32-1.62-0.32c-3.36,0-4.26,4.54-4.26,6.3c0,1.45,0.46,2.52,1.68,2.52
		c0.69,0,1.53-0.36,2.27-1.43c0.59-0.82,0.97-2.04,1.34-4.14L75.09,11.07z"/>
</g>
</svg>
